<?xml version="1.0" standalone="no"?>
<!DOCTYPE svg PUBLIC "-//W3C//DTD SVG 20010904//EN"
 "http://www.w3.org/TR/2001/REC-SVG-20010904/DTD/svg10.dtd">
<svg version="1.0" xmlns="http://www.w3.org/2000/svg"
 width="130.000000pt" height="130.000000pt" viewBox="0 0 130.000000 130.000000"
 preserveAspectRatio="xMidYMid meet">
<metadata>
Created by potrace 1.11, written by Peter Selinger 2001-2013
</metadata>
<g transform="translate(0.000000,130.000000) scale(0.100000,-0.100000)"
fill="#000000" stroke="none">
<path d="M306 1284 c-9 -23 -8 -24 18 -24 14 0 27 -4 31 -9 9 -16 -14 -23 -51
-16 -27 5 -34 10 -30 22 5 13 1 14 -23 10 -16 -4 -31 -3 -34 1 -2 4 -2 1 0 -7
2 -7 -2 -20 -8 -27 -8 -10 -8 -14 0 -14 6 0 11 -7 11 -16 0 -11 6 -14 21 -9
22 7 59 -18 59 -41 0 -8 6 -11 15 -7 14 5 14 8 -1 24 -16 18 -16 19 5 19 42 0
100 24 105 44 5 18 12 19 97 13 86 -6 93 -5 110 16 10 12 18 25 19 30 0 4 -49
7 -109 7 -88 0 -110 -3 -115 -15 -3 -9 -18 -15 -34 -15 -16 0 -35 7 -42 15
-16 20 -36 19 -44 -1z"/>
<path d="M680 1290 c0 -6 11 -21 25 -34 37 -34 32 -46 -21 -46 -27 0 -43 -4
-39 -10 3 -5 -1 -10 -9 -10 -9 0 -16 -4 -16 -10 0 -5 8 -10 18 -10 14 0 14 -2
3 -9 -8 -5 -21 -7 -29 -3 -8 3 -21 -3 -28 -12 -7 -10 -17 -15 -23 -11 -6 3
-11 -2 -12 -12 -1 -10 -6 -4 -11 15 -6 17 -14 32 -19 32 -4 0 -14 7 -22 15
-13 12 -23 12 -82 -7 -52 -17 -64 -24 -54 -32 34 -26 41 -44 27 -65 -21 -34
-38 -26 -38 19 0 29 -4 40 -15 40 -19 0 -21 -76 -2 -83 6 -2 9 -8 5 -12 -4 -4
-14 -2 -23 5 -10 8 -15 9 -15 1 0 -6 -11 -11 -24 -11 -29 0 -44 -19 -26 -30
16 -10 -18 -30 -50 -30 -17 0 -19 3 -11 19 8 15 5 21 -17 32 -15 7 -31 15 -37
18 -5 3 -2 -7 8 -22 18 -27 18 -28 -5 -47 -28 -23 -32 -24 -47 -6 -9 11 -8 18
5 30 22 22 12 31 -15 14 -13 -8 -20 -20 -17 -30 2 -10 0 -21 -6 -24 -5 -3 -7
-12 -4 -19 2 -7 -4 -21 -15 -31 -18 -16 -19 -16 -20 7 0 13 -4 33 -9 44 -5 12
-9 -188 -9 -472 l-1 -493 650 0 650 0 -2 333 c-3 287 -5 332 -18 332 -8 0 -21
7 -27 15 -11 13 -15 12 -30 -7 -13 -15 -34 -23 -73 -28 -30 -3 -63 -9 -72 -11
-11 -3 -18 0 -18 9 0 19 -85 97 -105 97 -20 0 -19 -15 2 -51 9 -15 14 -31 11
-34 -9 -9 -187 48 -207 66 -9 8 -29 24 -45 34 l-28 19 22 18 c18 15 20 21 10
33 -7 8 -11 15 -9 16 2 0 14 2 26 3 39 4 38 16 0 16 -38 0 -57 -19 -57 -59 0
-26 -6 -26 -65 0 -25 11 -62 22 -81 24 -29 2 -31 1 -19 -11 7 -8 18 -14 24
-14 6 0 30 -12 54 -27 23 -15 49 -26 57 -25 8 1 10 -1 3 -4 -13 -6 2 -64 21
-76 7 -5 7 -8 -2 -8 -20 0 -41 -62 -48 -142 -4 -40 -11 -81 -15 -90 -10 -19
15 -38 50 -38 11 0 30 -14 43 -31 52 -68 92 -109 102 -106 6 2 11 19 12 38 0
19 4 42 8 52 6 13 3 17 -13 17 -12 0 -21 -6 -21 -15 0 -29 -89 83 -96 121 -7
36 1 172 10 181 2 3 23 2 45 -2 l40 -7 -20 -31 c-11 -18 -19 -49 -18 -72 l0
-40 13 47 c15 55 29 74 70 94 28 14 29 14 12 0 -11 -9 -18 -17 -15 -20 14 -12
51 -26 69 -26 11 0 23 -6 26 -14 3 -8 12 -12 20 -9 8 3 14 0 14 -6 0 -6 7 -11
16 -11 19 0 16 -44 -3 -46 -7 -1 -15 -2 -18 -3 -2 0 0 -12 5 -25 6 -17 5 -26
-3 -29 -8 -3 -9 -8 -2 -16 8 -8 18 1 38 31 15 23 27 50 27 59 0 10 5 21 10 24
6 3 10 1 10 -5 0 -7 8 -9 20 -5 11 3 27 2 37 -4 16 -8 15 -11 -10 -22 -29 -13
-34 -24 -14 -32 7 -4 6 -6 -5 -6 -21 -1 -28 -22 -12 -38 10 -11 18 -11 39 -1
22 10 26 17 21 40 -7 35 10 46 18 12 6 -21 11 -25 29 -21 21 6 21 5 4 -8 -15
-10 -17 -21 -11 -52 4 -26 3 -35 -4 -28 -5 6 -12 19 -14 30 -5 27 -27 29 -65
6 -30 -19 -31 -22 -22 -55 21 -78 -36 -176 -102 -176 -18 0 -52 9 -76 21 l-43
21 -62 -26 c-57 -22 -63 -27 -60 -50 2 -15 -6 -39 -17 -55 -32 -44 -102 -47
-203 -9 -18 7 -28 18 -30 36 -3 25 -7 27 -51 30 -31 2 -55 -2 -69 -12 -12 -9
-30 -16 -39 -16 -9 0 -22 -7 -29 -15 -22 -26 -118 -20 -163 10 -46 32 -48 64
-12 137 24 47 24 53 10 74 -20 32 -19 67 4 88 12 11 21 35 24 64 2 26 18 85
35 132 17 47 26 87 21 90 -5 4 -2 15 6 26 14 18 15 18 9 0 -6 -15 -3 -17 13
-12 13 4 29 -1 44 -13 l24 -20 -37 -1 c-21 0 -38 -5 -38 -10 0 -17 30 -24 53
-12 12 5 30 13 40 16 24 8 21 33 -8 60 -28 26 -23 36 29 56 23 9 26 13 16 25
-11 13 -7 15 28 15 23 0 43 3 46 8 8 14 -19 39 -56 51 -21 7 -38 15 -38 18 0
10 75 -9 91 -23 12 -11 18 -11 27 -2 15 15 15 7 2 -26 -7 -20 -6 -26 5 -26 19
0 25 13 27 55 1 19 5 35 10 35 5 0 6 5 3 11 -4 6 -9 8 -12 6 -2 -3 -16 1 -30
8 -14 7 -31 11 -38 9 -22 -9 -26 12 -5 31 10 9 16 23 14 30 -3 7 7 18 25 26
31 14 41 33 41 87 0 50 30 42 56 -16 l20 -47 50 3 c50 4 123 -16 94 -25 -8 -3
-20 -6 -27 -8 -9 -3 -9 -11 2 -32 8 -15 15 -36 15 -46 0 -15 3 -16 20 -7 11 6
20 17 20 24 0 15 32 46 48 46 20 0 24 -46 8 -78 -11 -21 -13 -33 -5 -38 6 -3
14 -2 19 2 19 21 102 194 117 244 8 30 17 57 19 59 2 2 20 -13 40 -35 25 -28
30 -31 18 -11 -9 15 -14 30 -11 33 9 9 48 -16 42 -26 -17 -27 66 -117 157
-171 29 -17 65 -40 80 -50 14 -11 28 -19 31 -19 2 0 5 83 6 185 l2 185 -65 0
c-37 0 -66 -4 -66 -10 0 -5 -7 -10 -16 -10 -8 0 -12 5 -9 10 10 15 -25 12 -41
-4 -18 -19 -18 -31 2 -50 8 -9 11 -16 5 -16 -5 0 -13 5 -16 10 -3 6 -19 10
-36 10 -21 0 -29 -5 -30 -17 0 -10 -7 0 -15 21 -11 32 -12 41 -2 48 7 4 -65 8
-159 8 -114 0 -173 -4 -173 -10z m465 -40 c-3 -5 -13 -10 -21 -10 -8 0 -14 5
-14 10 0 6 9 10 21 10 11 0 17 -4 14 -10z m65 0 c0 -5 -4 -10 -10 -10 -5 0
-10 5 -10 10 0 6 5 10 10 10 6 0 10 -4 10 -10z m40 6 c0 -3 -4 -8 -10 -11 -5
-3 -10 -1 -10 4 0 6 5 11 10 11 6 0 10 -2 10 -4z m-80 -46 c13 -8 13 -10 -2
-10 -9 0 -20 5 -23 10 -8 13 5 13 25 0z m-700 -75 c0 -16 -9 -19 -34 -9 -25 9
-19 24 9 24 16 0 25 -6 25 -15z m405 -44 c3 -5 1 -12 -5 -16 -5 -3 -10 1 -10
9 0 18 6 21 15 7z m-465 -29 c0 -14 -23 -32 -42 -32 -10 0 -18 5 -18 11 0 6 7
8 15 5 9 -3 18 1 21 9 6 16 24 21 24 7z m-117 -164 c6 -21 2 -36 -7 -27 -10
11 -16 49 -8 49 5 0 12 -10 15 -22z m-181 -282 c1 -23 2 -50 0 -59 -10 -51
-52 25 -52 93 0 40 0 40 24 25 18 -12 25 -27 28 -59z"/>
<path d="M60 1205 c0 -8 7 -15 16 -15 14 0 14 3 4 15 -7 8 -14 15 -16 15 -2 0
-4 -7 -4 -15z"/>
<path d="M140 1190 c0 -6 11 -8 28 -4 39 10 40 14 4 14 -18 0 -32 -5 -32 -10z"/>
<path d="M516 1188 c7 -11 35 -10 54 2 11 7 5 9 -22 8 -21 -1 -35 -5 -32 -10z"/>
<path d="M0 1154 c0 -14 4 -23 10 -19 13 8 13 45 0 45 -5 0 -10 -12 -10 -26z"/>
<path d="M178 1143 c-25 -6 -23 -33 2 -33 11 0 20 6 20 14 0 8 6 17 13 19 15
7 -11 7 -35 0z"/>
<path d="M140 1081 c0 -5 -8 -12 -17 -14 -10 -3 -3 -5 16 -6 29 -1 32 1 21 14
-14 17 -20 19 -20 6z"/>
<path d="M248 1063 c6 -2 18 -2 25 0 6 3 1 5 -13 5 -14 0 -19 -2 -12 -5z"/>
<path d="M580 979 c0 -38 24 -35 28 4 2 19 -1 27 -12 27 -11 0 -16 -10 -16
-31z"/>
<path d="M510 925 c0 -3 9 -14 21 -26 11 -11 18 -26 16 -32 -5 -16 17 -37 40
-37 15 0 13 4 -10 25 -27 26 -35 45 -17 45 5 0 7 7 4 15 -6 13 -54 22 -54 10z"/>
<path d="M580 911 c0 -5 7 -12 16 -15 14 -5 15 -4 4 9 -14 17 -20 19 -20 6z"/>
<path d="M1236 843 c-86 -36 -117 -83 -83 -125 9 -12 22 -14 56 -9 41 5 46 9
54 41 4 19 15 40 23 47 9 7 14 23 12 41 l-3 30 -59 -25z"/>
<path d="M486 845 c-9 -26 -7 -32 5 -12 6 10 9 21 6 23 -2 3 -7 -2 -11 -11z"/>
<path d="M355 719 c-6 -9 21 -38 37 -39 4 0 10 -9 13 -20 4 -11 11 -18 16 -15
5 4 9 -1 9 -10 0 -9 16 -23 36 -31 33 -14 38 -14 62 3 l27 17 -55 12 -55 12
50 1 c49 0 92 -18 77 -34 -4 -5 -1 -5 6 -1 6 4 12 20 12 36 0 45 -34 63 -108
54 -45 -5 -66 -2 -90 10 -21 11 -33 12 -37 5z"/>
<path d="M350 666 c0 -2 9 -6 20 -9 11 -3 18 -1 14 4 -5 9 -34 13 -34 5z"/>
<path d="M380 615 c0 -8 4 -15 10 -15 5 0 7 7 4 15 -4 8 -8 15 -10 15 -2 0 -4
-7 -4 -15z"/>
<path d="M350 575 c7 -8 17 -15 22 -15 6 0 5 7 -2 15 -7 8 -17 15 -22 15 -6 0
-5 -7 2 -15z"/>
<path d="M146 296 c7 -18 32 -21 54 -5 12 8 10 9 -8 4 -13 -4 -29 -1 -38 6
-12 10 -13 9 -8 -5z"/>
<path d="M570 290 c-30 -11 -48 -19 -39 -19 20 -1 81 19 94 30 11 11 13 11
-55 -11z"/>
</g>
</svg>
